<?xml version="1.0" encoding="UTF-8" standalone="no"?>
<!-- Created with Inkscape (http://www.inkscape.org/) -->

<svg
   xmlns:dc="http://purl.org/dc/elements/1.1/"
   xmlns:cc="http://creativecommons.org/ns#"
   xmlns:rdf="http://www.w3.org/1999/02/22-rdf-syntax-ns#"
   xmlns:svg="http://www.w3.org/2000/svg"
   xmlns="http://www.w3.org/2000/svg"
   xmlns:sodipodi="http://sodipodi.sourceforge.net/DTD/sodipodi-0.dtd"
   xmlns:inkscape="http://www.inkscape.org/namespaces/inkscape"
   version="1.1"
   id="svg104493"
   xml:space="preserve"
   width="800"
   height="800"
   viewBox="0 0 800 800"
   sodipodi:docname="shark-fish-publicdomainvectors.org.svg"
   inkscape:version="0.92.4 (5da689c313, 2019-01-14)"><metadata
     id="metadata104499"><rdf:RDF><cc:Work
         rdf:about=""><dc:format>image/svg+xml</dc:format><dc:type
           rdf:resource="http://purl.org/dc/dcmitype/StillImage" /><dc:title></dc:title></cc:Work></rdf:RDF></metadata><defs
     id="defs104497"><clipPath
       clipPathUnits="userSpaceOnUse"
       id="clipPath104509"><path
         d="M 0,600 H 600 V 0 H 0 Z"
         id="path104507"
         inkscape:connector-curvature="0" /></clipPath></defs><sodipodi:namedview
     pagecolor="#ffffff"
     bordercolor="#666666"
     borderopacity="1"
     objecttolerance="10"
     gridtolerance="10"
     guidetolerance="10"
     inkscape:pageopacity="0"
     inkscape:pageshadow="2"
     inkscape:window-width="797"
     inkscape:window-height="480"
     id="namedview104495"
     showgrid="false"
     inkscape:zoom="0.295"
     inkscape:cx="400"
     inkscape:cy="400"
     inkscape:window-x="0"
     inkscape:window-y="0"
     inkscape:window-maximized="0"
     inkscape:current-layer="g104501" /><g
     id="g104501"
     inkscape:groupmode="layer"
     inkscape:label="shark-fish-publicdomainvectors.org"
     transform="matrix(1.3333333,0,0,-1.3333333,0,800)"><g
       id="g104503"><g
         id="g104505"
         clip-path="url(#clipPath104509)"><path
           d="m 289.475,235.532 c 2.176,-0.039 4.379,-0.061 6.611,-0.061 18.852,0 38.034,1.427 57.481,4.265 -3.314,3.765 -29.356,31.94 -38.955,42.319 -2.393,1.021 -4.595,1.944 -6.573,2.759 l -4.573,1.884 4.706,1.52 c 0.847,0.274 20.96,6.695 41.458,6.695 12.801,0 22.916,-2.538 30.069,-7.546 8.358,-5.625 23.3,-18.619 38.364,-33.321 16.098,4.763 32.326,10.438 48.645,17.015 -51.429,29.971 -106.885,48.777 -160.523,61.058 0.178,-0.745 0.351,-1.492 0.52,-2.242 1.284,-6.5 1.94,-13.166 1.53,-19.41 -0.046,-1.56 -0.258,-3.09 -0.416,-4.582 -0.28,-1.484 -0.439,-2.947 -0.804,-4.34 -0.568,-2.811 -1.471,-5.386 -2.405,-7.698 -0.457,-1.162 -1.02,-2.227 -1.501,-3.253 -0.544,-0.996 -1.114,-1.914 -1.618,-2.786 -1.12,-1.686 -2.159,-3.099 -3.134,-4.164 -0.894,-1.129 -1.777,-1.853 -2.314,-2.397 -0.553,-0.528 -0.846,-0.809 -0.846,-0.809 0,0 0.243,0.329 0.699,0.942 0.448,0.618 1.154,1.482 1.885,2.697 0.799,1.164 1.598,2.683 2.497,4.407 0.388,0.898 0.83,1.834 1.239,2.843 0.345,1.038 0.807,2.082 1.135,3.232 0.319,1.151 0.714,2.324 0.949,3.591 0.139,0.625 0.281,1.261 0.426,1.907 0.107,0.654 0.214,1.317 0.327,1.99 0.426,2.691 0.635,5.564 0.687,8.539 0.106,2.975 -0.167,6.053 -0.417,9.17 -0.31,3.117 -0.831,6.264 -1.471,9.387 -0.273,1.291 -0.563,2.578 -0.871,3.859 -3.024,0.676 -6.044,1.338 -9.055,1.973 0.269,-1.09 0.531,-2.185 0.777,-3.283 1.283,-6.502 1.939,-13.167 1.531,-19.411 -0.047,-1.56 -0.26,-3.091 -0.416,-4.583 -0.281,-1.483 -0.44,-2.946 -0.806,-4.338 -0.567,-2.811 -1.47,-5.386 -2.403,-7.7 -0.457,-1.162 -1.021,-2.224 -1.502,-3.251 -0.543,-0.998 -1.115,-1.916 -1.617,-2.788 -1.121,-1.683 -2.16,-3.097 -3.133,-4.164 -0.894,-1.129 -1.779,-1.851 -2.316,-2.394 -0.553,-0.53 -0.846,-0.811 -0.846,-0.811 0,0 0.242,0.327 0.699,0.943 0.448,0.618 1.155,1.481 1.885,2.698 0.801,1.164 1.599,2.681 2.496,4.405 0.389,0.899 0.832,1.834 1.239,2.844 0.347,1.038 0.808,2.083 1.136,3.23 0.319,1.152 0.713,2.325 0.948,3.593 0.14,0.625 0.282,1.26 0.427,1.906 0.107,0.654 0.215,1.318 0.326,1.99 0.426,2.692 0.635,5.565 0.688,8.539 0.107,2.975 -0.168,6.053 -0.416,9.17 -0.311,3.118 -0.832,6.264 -1.471,9.388 -0.342,1.615 -0.705,3.226 -1.104,4.823 -2.857,0.588 -5.707,1.161 -8.55,1.716 0.173,-0.724 0.342,-1.45 0.505,-2.177 1.284,-6.501 1.938,-13.166 1.528,-19.411 -0.045,-1.559 -0.258,-3.09 -0.416,-4.582 -0.278,-1.483 -0.437,-2.946 -0.803,-4.338 -0.568,-2.811 -1.471,-5.387 -2.406,-7.7 -0.455,-1.162 -1.019,-2.226 -1.5,-3.251 -0.545,-0.998 -1.114,-1.916 -1.619,-2.788 -1.117,-1.685 -2.158,-3.097 -3.133,-4.164 -0.893,-1.129 -1.777,-1.851 -2.313,-2.395 -0.554,-0.529 -0.849,-0.81 -0.849,-0.81 0,0 0.244,0.327 0.703,0.943 0.446,0.618 1.152,1.482 1.883,2.697 0.801,1.165 1.599,2.681 2.498,4.408 0.388,0.896 0.828,1.833 1.236,2.842 0.346,1.037 0.809,2.083 1.137,3.231 0.318,1.151 0.715,2.324 0.949,3.592 0.139,0.625 0.28,1.26 0.426,1.906 0.106,0.654 0.216,1.318 0.326,1.99 0.428,2.69 0.637,5.565 0.689,8.539 0.106,2.975 -0.166,6.052 -0.417,9.17 -0.311,3.117 -0.831,6.264 -1.471,9.389 -0.258,1.223 -0.534,2.442 -0.824,3.657 -3.488,0.664 -6.961,1.302 -10.421,1.918 0.093,-0.405 0.19,-0.809 0.28,-1.214 1.285,-6.501 1.941,-13.166 1.53,-19.411 -0.046,-1.559 -0.257,-3.09 -0.417,-4.582 -0.279,-1.483 -0.437,-2.946 -0.802,-4.339 -0.569,-2.81 -1.473,-5.386 -2.406,-7.699 -0.456,-1.162 -1.02,-2.226 -1.501,-3.251 -0.544,-0.997 -1.113,-1.916 -1.617,-2.788 -1.119,-1.686 -2.16,-3.097 -3.134,-4.164 -0.893,-1.129 -1.778,-1.851 -2.315,-2.395 -0.553,-0.529 -0.847,-0.81 -0.847,-0.81 0,0 0.244,0.327 0.701,0.942 0.448,0.619 1.154,1.484 1.884,2.698 0.801,1.164 1.6,2.681 2.498,4.408 0.387,0.896 0.829,1.833 1.238,2.841 0.345,1.037 0.809,2.083 1.135,3.232 0.319,1.151 0.715,2.324 0.949,3.59 0.139,0.627 0.282,1.262 0.425,1.908 0.109,0.654 0.218,1.318 0.327,1.99 0.428,2.69 0.637,5.563 0.69,8.538 0.104,2.976 -0.168,6.054 -0.418,9.17 -0.311,3.118 -0.83,6.265 -1.471,9.39 -0.185,0.875 -0.379,1.75 -0.578,2.621 -50.554,8.776 -97.899,12.637 -136.71,15.799 -18.342,1.494 -35.151,1.813 -49.948,3.477 l 10.538,-7.135 H 81.7 l 0.301,-11.901 -7.507,19.731 c -20.929,2.406 -37.7,5.703 -48.865,10.58 7.235,-34.629 56.58,-60.752 78.269,-72.289 2.206,-1.174 4.395,-1.678 6.694,-1.678 9.491,0 18.928,10.043 28.917,20.641 11.716,12.428 23.832,25.297 38.37,25.297 6.221,0 12.509,-2.461 18.69,-7.332 l 0.362,-0.279 -0.017,-0.457 c -1.694,-50.864 -54.973,-58.071 -62.799,-58.851 1.955,-14.809 17.057,-17.952 29.522,-17.952 6.515,0.002 11.594,0.908 11.646,0.918 l 0.316,0.057 0.282,-0.154 c 0.421,-0.232 41.597,-22.352 113.014,-23.768 0.213,0.012 0.404,0.007 0.58,-0.01"
           style="fill:#9adcc3;fill-opacity:1;fill-rule:nonzero;stroke:none"
           id="path104511"
           inkscape:connector-curvature="0" /><path
           d="m 126.455,384.313 30.846,-3.628 -33.568,-7.485 z m 135.747,-41.551 c -0.391,1.582 -0.817,3.15 -1.302,4.691 -0.929,3.006 -1.882,5.959 -3,8.747 -1.081,2.804 -2.254,5.464 -3.412,7.968 -1.224,2.469 -2.386,4.81 -3.595,6.896 -0.584,1.059 -1.188,2.043 -1.768,2.979 -0.557,0.953 -1.135,1.821 -1.681,2.641 -1.092,1.629 -2.085,3.045 -2.956,4.15 -0.856,1.125 -1.56,2.006 -2.064,2.58 -0.49,0.586 -0.753,0.899 -0.753,0.899 0,0 0.309,-0.264 0.892,-0.76 0.585,-0.493 1.445,-1.209 2.457,-2.237 1.039,-1.001 2.242,-2.263 3.527,-3.8 1.299,-1.526 2.715,-3.299 4.099,-5.344 1.432,-2.018 2.841,-4.297 4.239,-6.764 1.349,-2.49 2.763,-5.135 3.963,-7.99 1.238,-2.836 2.418,-5.818 3.395,-8.926 0.685,-2.088 1.269,-4.234 1.802,-6.4 3.452,-0.612 6.919,-1.246 10.399,-1.905 -0.318,1.225 -0.653,2.44 -1.029,3.636 -0.931,3.007 -1.881,5.96 -2.999,8.748 -1.081,2.804 -2.253,5.464 -3.412,7.968 -1.225,2.469 -2.388,4.81 -3.596,6.898 -0.583,1.057 -1.187,2.042 -1.767,2.977 -0.557,0.953 -1.136,1.822 -1.681,2.641 -1.094,1.631 -2.086,3.045 -2.957,4.152 -0.857,1.123 -1.56,2.004 -2.064,2.578 -0.491,0.586 -0.753,0.9 -0.753,0.9 0,0 0.31,-0.265 0.892,-0.761 0.586,-0.492 1.445,-1.209 2.458,-2.236 1.038,-1 2.241,-2.264 3.527,-3.801 1.298,-1.526 2.714,-3.299 4.099,-5.344 1.432,-2.017 2.84,-4.297 4.238,-6.764 1.35,-2.49 2.764,-5.133 3.962,-7.99 1.24,-2.836 2.418,-5.818 3.396,-8.926 0.582,-1.773 1.09,-3.589 1.556,-5.423 2.834,-0.549 5.673,-1.114 8.52,-1.696 -0.227,0.822 -0.463,1.641 -0.717,2.45 -0.929,3.006 -1.883,5.96 -2.999,8.748 -1.082,2.804 -2.254,5.463 -3.413,7.968 -1.225,2.469 -2.389,4.809 -3.596,6.898 -0.584,1.057 -1.188,2.043 -1.768,2.977 -0.556,0.954 -1.135,1.822 -1.68,2.641 -1.095,1.631 -2.086,3.045 -2.957,4.152 -0.854,1.122 -1.559,2.004 -2.063,2.578 -0.493,0.588 -0.754,0.9 -0.754,0.9 0,0 0.31,-0.265 0.892,-0.761 0.587,-0.492 1.446,-1.209 2.458,-2.235 1.038,-1.001 2.242,-2.265 3.527,-3.802 1.299,-1.526 2.715,-3.299 4.099,-5.344 1.431,-2.017 2.84,-4.298 4.239,-6.764 1.35,-2.488 2.764,-5.133 3.961,-7.99 1.24,-2.836 2.417,-5.818 3.396,-8.926 0.463,-1.41 0.877,-2.847 1.266,-4.298 3.012,-0.633 6.033,-1.289 9.06,-1.961 -0.3,1.146 -0.615,2.285 -0.967,3.406 -0.93,3.004 -1.884,5.959 -3,8.748 -1.081,2.803 -2.254,5.463 -3.413,7.965 -1.223,2.469 -2.385,4.811 -3.596,6.898 -0.582,1.059 -1.188,2.043 -1.767,2.98 -0.556,0.952 -1.136,1.821 -1.68,2.639 -1.094,1.63 -2.087,3.045 -2.957,4.153 -0.856,1.123 -1.559,2.005 -2.064,2.578 -0.491,0.586 -0.753,0.899 -0.753,0.899 0,0 0.31,-0.264 0.892,-0.761 0.586,-0.493 1.446,-1.209 2.458,-2.234 1.039,-1.002 2.24,-2.265 3.527,-3.803 1.299,-1.525 2.715,-3.298 4.099,-5.343 1.431,-2.016 2.841,-4.297 4.239,-6.764 1.35,-2.489 2.763,-5.133 3.961,-7.99 1.24,-2.836 2.418,-5.82 3.396,-8.926 0.571,-1.74 1.07,-3.523 1.531,-5.321 54.489,-12.409 110.906,-31.513 163.155,-62.179 l 0.123,0.05 0.424,-0.394 c 0.329,-0.305 33.269,-30.52 64.032,-30.52 4.921,0 9.572,0.777 13.867,2.315 -14.457,5.837 -25.283,18.591 -35.771,30.944 -1.573,1.855 -3.143,3.705 -4.723,5.53 l -0.146,0.231 c -6.319,14.503 13.45,65.486 38.549,83.735 -42.022,-10.008 -58.95,-44.079 -71.43,-69.197 -2.316,-4.66 -4.503,-9.058 -6.624,-12.807 l -0.501,-0.887 -0.822,0.6 c -116.212,84.564 -199.197,119.057 -286.433,119.057 -47.629,0 -94.124,-10.032 -154.48,-24.224 0.079,-0.849 0.193,-1.691 0.324,-2.532 18.648,-8.676 54.963,-11.637 100.859,-15.377 38.662,-3.149 85.775,-6.989 136.108,-15.682"
           style="fill:#79d2cb;fill-opacity:1;fill-rule:nonzero;stroke:none"
           id="path104513"
           inkscape:connector-curvature="0" /><path
           d="m 340.196,373.418 c -5.792,17.021 -4.112,33.019 4.549,44.41 -20.392,-5.866 -30.935,-16.566 -38.807,-24.557 -1.478,-1.5 -2.896,-2.938 -4.282,-4.251 5.716,-3.288 28.584,-11.972 38.54,-15.602"
           style="fill:#79d2cb;fill-opacity:1;fill-rule:nonzero;stroke:none"
           id="path104515"
           inkscape:connector-curvature="0" /><path
           d="m 377.646,284.376 c -6.558,4.591 -15.976,6.909 -28.016,6.909 -14.027,0 -28.192,-3.195 -35.423,-5.113 29.755,-12.59 93.575,-42.586 146.167,-87.661 -7.738,18.05 -60.713,71.047 -82.728,85.865"
           style="fill:#79d2cb;fill-opacity:1;fill-rule:nonzero;stroke:none"
           id="path104517"
           inkscape:connector-curvature="0" /><path
           d="m 130.785,301.454 c -1.15,0.064 -5.822,-5.662 -5.24,-7.703 l 9.451,-1.555 0.41,-0.068 1.092,-0.179 -0.19,0.319 -0.411,0.682 z"
           style="fill:#ffffff;fill-opacity:1;fill-rule:nonzero;stroke:none"
           id="path104519"
           inkscape:connector-curvature="0" /><path
           d="m 143.758,300.254 -1.881,9.668 c -1.058,0.605 -6.652,-3.401 -7.559,-5.443 l 8.749,-4.921 0.927,-0.523 z"
           style="fill:#ffffff;fill-opacity:1;fill-rule:nonzero;stroke:none"
           id="path104521"
           inkscape:connector-curvature="0" /><path
           d="m 153.168,310.096 -2.799,9.153 c -1.267,0.476 -7.432,-4.716 -6.951,-6.202 l 8.902,-3.847 1.291,-0.557 z"
           style="fill:#ffffff;fill-opacity:1;fill-rule:nonzero;stroke:none"
           id="path104523"
           inkscape:connector-curvature="0" /><path
           d="m 159.216,330.217 c -1.008,0.617 -6.714,-4.844 -6.697,-6.477 l 10.359,-3.992 z"
           style="fill:#ffffff;fill-opacity:1;fill-rule:nonzero;stroke:none"
           id="path104525"
           inkscape:connector-curvature="0" /><path
           d="m 173.512,327.004 0.404,9.35 c -2.023,0.642 -8.62,-3.532 -8.62,-3.532 l 6.903,-6.402 1.238,-1.146 z"
           style="fill:#ffffff;fill-opacity:1;fill-rule:nonzero;stroke:none"
           id="path104527"
           inkscape:connector-curvature="0" /><path
           d="m 187.172,335.808 c -0.664,1.225 -7.947,-0.257 -9.006,-2.378 l 7.088,-8.545 z"
           style="fill:#ffffff;fill-opacity:1;fill-rule:nonzero;stroke:none"
           id="path104529"
           inkscape:connector-curvature="0" /><path
           d="m 126.455,384.313 30.846,-3.628 -33.568,-7.485 z m -0.911,-90.562 c -0.582,2.041 4.091,7.768 5.241,7.704 l 5.111,-8.506 0.413,-0.681 0.19,-0.32 -1.092,0.181 -0.41,0.066 z m 180.394,99.52 c 7.871,7.99 18.415,18.69 38.807,24.557 -8.661,-11.391 -10.341,-27.389 -4.549,-44.41 -9.956,3.631 -32.824,12.314 -38.54,15.602 1.386,1.312 2.804,2.751 4.282,4.251 m 163.031,-121.301 -0.123,-0.05 c -52.249,30.666 -108.666,49.77 -163.155,62.179 -0.461,1.798 -0.96,3.581 -1.531,5.321 -0.978,3.106 -2.156,6.09 -3.396,8.926 -1.198,2.857 -2.611,5.501 -3.961,7.99 -1.398,2.467 -2.808,4.748 -4.239,6.764 -1.384,2.045 -2.8,3.818 -4.099,5.343 -1.287,1.538 -2.488,2.801 -3.527,3.803 -1.012,1.025 -1.872,1.741 -2.458,2.234 -0.582,0.497 -0.892,0.761 -0.892,0.761 0,0 0.262,-0.313 0.753,-0.899 0.505,-0.573 1.208,-1.455 2.064,-2.578 0.87,-1.108 1.863,-2.523 2.957,-4.153 0.544,-0.818 1.124,-1.687 1.68,-2.639 0.579,-0.937 1.185,-1.921 1.767,-2.98 1.211,-2.087 2.373,-4.429 3.596,-6.898 1.159,-2.502 2.332,-5.162 3.413,-7.965 1.116,-2.789 2.07,-5.744 3,-8.748 0.352,-1.121 0.667,-2.26 0.967,-3.406 -3.027,0.672 -6.048,1.328 -9.06,1.961 -0.389,1.451 -0.803,2.888 -1.266,4.298 -0.979,3.108 -2.156,6.09 -3.396,8.926 -1.197,2.857 -2.611,5.502 -3.961,7.99 -1.399,2.466 -2.808,4.747 -4.239,6.764 -1.384,2.045 -2.8,3.818 -4.099,5.344 -1.285,1.537 -2.489,2.801 -3.527,3.802 -1.012,1.026 -1.871,1.743 -2.458,2.235 -0.582,0.496 -0.892,0.761 -0.892,0.761 0,0 0.261,-0.312 0.754,-0.9 0.504,-0.574 1.209,-1.456 2.063,-2.578 0.871,-1.107 1.862,-2.521 2.957,-4.152 0.545,-0.819 1.124,-1.687 1.68,-2.641 0.58,-0.934 1.184,-1.92 1.768,-2.977 1.207,-2.089 2.371,-4.429 3.596,-6.898 1.159,-2.505 2.331,-5.164 3.413,-7.968 1.116,-2.788 2.07,-5.742 2.999,-8.748 0.254,-0.809 0.49,-1.628 0.717,-2.45 -2.847,0.582 -5.686,1.147 -8.52,1.696 -0.466,1.834 -0.974,3.65 -1.556,5.423 -0.978,3.108 -2.156,6.09 -3.396,8.926 -1.198,2.857 -2.612,5.5 -3.962,7.99 -1.398,2.467 -2.806,4.747 -4.238,6.764 -1.385,2.045 -2.801,3.818 -4.099,5.344 -1.286,1.537 -2.489,2.801 -3.527,3.801 -1.013,1.027 -1.872,1.744 -2.458,2.236 -0.582,0.496 -0.892,0.761 -0.892,0.761 0,0 0.262,-0.314 0.753,-0.9 0.504,-0.574 1.207,-1.455 2.064,-2.578 0.871,-1.107 1.863,-2.521 2.957,-4.152 0.545,-0.819 1.124,-1.688 1.681,-2.641 0.58,-0.935 1.184,-1.92 1.767,-2.977 1.208,-2.088 2.371,-4.429 3.596,-6.898 1.159,-2.504 2.331,-5.164 3.412,-7.968 1.118,-2.788 2.068,-5.741 2.999,-8.748 0.376,-1.196 0.711,-2.411 1.029,-3.636 -3.48,0.659 -6.947,1.293 -10.399,1.905 -0.533,2.166 -1.117,4.312 -1.802,6.4 -0.977,3.108 -2.157,6.09 -3.395,8.926 -1.2,2.855 -2.614,5.5 -3.963,7.99 -1.398,2.467 -2.807,4.746 -4.239,6.764 -1.384,2.045 -2.8,3.818 -4.099,5.344 -1.285,1.537 -2.488,2.799 -3.527,3.8 -1.012,1.028 -1.872,1.744 -2.457,2.237 -0.583,0.496 -0.892,0.76 -0.892,0.76 0,0 0.263,-0.313 0.753,-0.899 0.504,-0.574 1.208,-1.455 2.064,-2.58 0.871,-1.105 1.864,-2.521 2.956,-4.15 0.546,-0.82 1.124,-1.688 1.681,-2.641 0.58,-0.936 1.184,-1.92 1.768,-2.979 1.209,-2.086 2.371,-4.427 3.595,-6.896 1.158,-2.504 2.331,-5.164 3.412,-7.968 1.118,-2.788 2.071,-5.741 3,-8.747 0.485,-1.541 0.911,-3.109 1.302,-4.691 -50.333,8.693 -97.446,12.533 -136.108,15.682 -45.896,3.74 -82.211,6.701 -100.859,15.377 -0.131,0.841 -0.245,1.683 -0.324,2.532 60.356,14.192 106.851,24.224 154.48,24.224 87.236,0 170.221,-34.493 286.433,-119.057 l 0.822,-0.6 0.501,0.887 c 2.121,3.749 4.308,8.147 6.624,12.807 12.48,25.118 29.408,59.189 71.43,69.197 -25.099,-18.249 -44.868,-69.232 -38.549,-83.735 l 0.146,-0.231 c 1.58,-1.825 3.15,-3.675 4.723,-5.53 10.488,-12.353 21.314,-25.107 35.771,-30.944 -4.295,-1.538 -8.946,-2.315 -13.867,-2.315 -30.763,0 -63.703,30.215 -64.032,30.52 z m -154.762,14.202 c 7.231,1.918 21.396,5.113 35.423,5.113 12.04,0 21.458,-2.318 28.016,-6.909 22.015,-14.818 74.99,-67.815 82.728,-85.865 -52.592,45.076 -116.412,75.071 -146.167,87.661 m -172.33,23.75 1.88,-9.668 0.237,-1.219 -0.928,0.523 -8.748,4.921 c 0.907,2.042 6.5,6.048 7.559,5.443 m 36.289,23.508 c 1.059,2.121 8.344,3.603 9.006,2.378 l -1.919,-10.923 z m -12.87,-0.608 c 0,0 6.597,4.174 8.621,3.532 l -0.405,-9.35 -0.076,-1.731 -1.236,1.147 z m -12.778,-9.082 c -0.016,1.633 5.69,7.094 6.699,6.477 l 3.661,-10.469 z m 1.093,-15.096 -1.291,0.556 -8.901,3.845 c -0.483,1.488 5.683,6.68 6.95,6.205 l 2.798,-9.154 z m 135.864,-73.112 c -0.176,0.017 -0.368,0.022 -0.58,0.01 -71.418,1.416 -112.592,23.536 -113.015,23.768 l -0.28,0.154 -0.318,-0.057 c -0.05,-0.01 -5.13,-0.916 -11.645,-0.918 -12.464,0 -27.567,3.143 -29.523,17.951 7.827,0.781 61.107,7.989 62.8,58.853 l 0.016,0.459 -0.36,0.285 c -6.181,4.87 -12.47,7.34 -18.69,7.34 -14.54,0 -26.655,-12.854 -38.37,-25.281 -9.99,-10.598 -19.427,-20.609 -28.919,-20.609 -2.297,0 -4.486,0.571 -6.692,1.744 -21.69,11.539 -71.036,37.79 -78.27,72.419 11.166,-4.877 27.936,-7.911 48.864,-10.316 l 7.509,-19.256 -0.302,12.901 h 4.838 l -10.537,6.135 c 14.796,-1.664 31.606,-3.009 49.946,-4.504 38.813,-3.161 86.157,-7.008 136.711,-15.785 0.199,-0.872 0.393,-1.739 0.578,-2.616 0.641,-3.123 1.16,-6.268 1.471,-9.385 0.251,-3.117 0.522,-6.193 0.417,-9.168 -0.052,-2.974 -0.26,-5.847 -0.688,-8.537 -0.111,-0.674 -0.22,-1.337 -0.327,-1.99 -0.144,-0.647 -0.286,-1.281 -0.425,-1.907 -0.235,-1.267 -0.631,-2.441 -0.95,-3.591 -0.327,-1.15 -0.789,-2.194 -1.136,-3.233 -0.407,-1.007 -0.85,-1.943 -1.237,-2.84 -0.899,-1.727 -1.697,-3.245 -2.498,-4.409 -0.73,-1.213 -1.435,-2.079 -1.884,-2.697 -0.458,-0.614 -0.7,-0.941 -0.7,-0.941 0,0 0.294,0.28 0.847,0.808 0.537,0.544 1.421,1.268 2.315,2.397 0.973,1.065 2.014,2.477 3.132,4.164 0.505,0.87 1.073,1.788 1.618,2.788 0.481,1.024 1.045,2.088 1.502,3.25 0.933,2.312 1.836,4.889 2.405,7.699 0.365,1.393 0.524,2.857 0.802,4.34 0.159,1.491 0.371,3.022 0.416,4.582 0.411,6.244 -0.243,12.909 -1.528,19.41 -0.091,0.405 -0.188,0.809 -0.282,1.215 3.461,-0.617 6.933,-1.254 10.422,-1.918 0.289,-1.216 0.565,-2.435 0.824,-3.66 0.641,-3.123 1.16,-6.27 1.471,-9.388 0.25,-3.116 0.522,-6.194 0.418,-9.17 -0.054,-2.973 -0.262,-5.847 -0.691,-8.538 -0.109,-0.673 -0.22,-1.336 -0.326,-1.99 -0.144,-0.646 -0.286,-1.281 -0.426,-1.908 -0.234,-1.266 -0.63,-2.44 -0.948,-3.59 -0.328,-1.148 -0.79,-2.194 -1.136,-3.231 -0.408,-1.009 -0.85,-1.946 -1.237,-2.842 -0.9,-1.727 -1.697,-3.243 -2.499,-4.408 -0.73,-1.215 -1.437,-2.08 -1.883,-2.698 -0.457,-0.615 -0.701,-0.941 -0.701,-0.941 0,0 0.294,0.28 0.847,0.808 0.537,0.544 1.422,1.267 2.315,2.397 0.974,1.065 2.015,2.477 3.133,4.163 0.505,0.872 1.074,1.79 1.617,2.788 0.482,1.025 1.046,2.089 1.502,3.251 0.933,2.314 1.837,4.889 2.405,7.699 0.366,1.393 0.524,2.856 0.803,4.34 0.159,1.491 0.372,3.023 0.416,4.582 0.411,6.244 -0.244,12.909 -1.527,19.41 -0.164,0.727 -0.334,1.452 -0.506,2.178 2.842,-0.556 5.692,-1.129 8.551,-1.718 0.398,-1.595 0.761,-3.208 1.103,-4.821 0.639,-3.125 1.16,-6.271 1.471,-9.39 0.249,-3.116 0.522,-6.194 0.416,-9.169 -0.052,-2.974 -0.261,-5.847 -0.688,-8.539 -0.111,-0.673 -0.218,-1.336 -0.326,-1.99 -0.144,-0.645 -0.287,-1.281 -0.428,-1.906 -0.233,-1.268 -0.628,-2.441 -0.947,-3.593 -0.328,-1.147 -0.79,-2.192 -1.137,-3.23 -0.406,-1.009 -0.849,-1.946 -1.237,-2.843 -0.897,-1.725 -1.697,-3.242 -2.497,-4.406 -0.73,-1.216 -1.437,-2.08 -1.884,-2.699 -0.457,-0.615 -0.701,-0.942 -0.701,-0.942 0,0 0.294,0.281 0.847,0.811 0.537,0.542 1.422,1.265 2.315,2.394 0.974,1.066 2.014,2.481 3.133,4.164 0.504,0.872 1.074,1.79 1.618,2.788 0.481,1.027 1.044,2.089 1.501,3.251 0.935,2.314 1.838,4.889 2.404,7.699 0.367,1.393 0.525,2.856 0.805,4.339 0.157,1.492 0.37,3.024 0.416,4.582 0.409,6.245 -0.246,12.91 -1.529,19.411 -0.247,1.1 -0.509,2.194 -0.778,3.285 3.01,-0.636 6.031,-1.298 9.055,-1.974 0.308,-1.28 0.598,-2.567 0.871,-3.858 0.64,-3.123 1.161,-6.271 1.471,-9.388 0.25,-3.117 0.523,-6.195 0.417,-9.17 -0.052,-2.976 -0.261,-5.849 -0.687,-8.539 -0.113,-0.672 -0.22,-1.336 -0.327,-1.989 -0.145,-0.646 -0.287,-1.283 -0.425,-1.909 -0.236,-1.266 -0.631,-2.44 -0.95,-3.59 -0.328,-1.15 -0.79,-2.195 -1.134,-3.232 -0.41,-1.01 -0.852,-1.944 -1.24,-2.844 -0.898,-1.722 -1.698,-3.242 -2.497,-4.406 -0.73,-1.216 -1.437,-2.079 -1.886,-2.696 -0.456,-0.614 -0.699,-0.943 -0.699,-0.943 0,0 0.294,0.282 0.847,0.809 0.537,0.544 1.421,1.268 2.314,2.397 0.975,1.065 2.015,2.478 3.134,4.164 0.504,0.872 1.074,1.79 1.618,2.787 0.481,1.025 1.044,2.09 1.501,3.252 0.934,2.312 1.837,4.887 2.405,7.698 0.365,1.393 0.524,2.855 0.804,4.34 0.158,1.49 0.37,3.021 0.416,4.582 0.41,6.244 -0.246,12.908 -1.529,19.41 -0.169,0.75 -0.343,1.498 -0.522,2.242 53.639,-12.281 109.095,-31.087 160.524,-61.058 -16.319,-6.577 -32.546,-12.252 -48.645,-17.015 -15.064,14.702 -30.006,27.696 -38.364,33.321 -7.153,5.008 -17.268,7.546 -30.069,7.546 -20.498,0 -40.612,-6.421 -41.458,-6.694 l -4.706,-1.522 4.573,-1.884 c 1.979,-0.814 4.18,-1.737 6.573,-2.758 9.599,-10.379 35.641,-38.554 38.955,-42.319 -19.447,-2.838 -38.629,-4.265 -57.48,-4.265 -2.233,0 -4.437,0.022 -6.612,0.061 m 265.077,21.582 c -11.594,3.997 -21.154,15.258 -31.275,27.182 -0.838,0.986 -1.673,1.974 -2.512,2.954 -0.538,12.074 16.647,54.805 36.186,65.823 l 15.851,35.749 C 503.854,373.2 474.744,331.153 461.149,303.869 420.847,332.465 384.37,355 350.117,372.131 c -7.221,31.366 7.904,48.471 19.017,53.687 -24.948,11.567 -60.782,-8.619 -76.18,-29.373 -38.815,13.42 -75.739,19.554 -113.563,19.554 -49.493,0 -97.025,-10.286 -158.775,-24.814 L 8.539,388.342 9.467,375.971 c 3.027,-40.362 45.774,-68.325 87.189,-90.355 4.43,-2.355 9.118,-3.551 13.936,-3.551 2.564,0 5.029,0.328 7.406,0.925 l 0.659,-7.073 c 1.913,-20.569 18.728,-32.851 44.98,-32.849 3.618,0 6.849,0.227 9.334,0.482 6.916,-3.225 21.572,-9.313 43.175,-14.484 -11.216,-6.463 -32.31,-46.607 -30.496,-59.989 17.692,12.021 80.6,49.759 84.413,51.869 8.222,-0.574 16.901,-0.896 26.024,-0.896 33.319,0 67.582,4.279 102.457,12.763 6.428,1.563 65.124,-50.239 71.593,-48.389 1.057,23.434 -32.359,57.457 -33.055,59.397 9.614,3.149 19.265,6.608 28.946,10.376 12.626,-10.093 39.543,-28.562 67.397,-28.562 7.873,0 15.322,1.49 22.14,4.429 l 34.417,14.832 z"
           style="fill:#110f0d;fill-opacity:1;fill-rule:nonzero;stroke:none"
           id="path104531"
           inkscape:connector-curvature="0" /></g></g></g></svg>